<?xml version="1.0" encoding="UTF-8" standalone="no"?>
<!DOCTYPE svg PUBLIC "-//W3C//DTD SVG 1.1//EN" "http://www.w3.org/Graphics/SVG/1.1/DTD/svg11.dtd">
<svg width="100%" height="100%" viewBox="0 0 387 101" version="1.1" xmlns="http://www.w3.org/2000/svg" xmlns:xlink="http://www.w3.org/1999/xlink" xml:space="preserve" xmlns:serif="http://www.serif.com/" style="fill-rule:evenodd;clip-rule:evenodd;stroke-linejoin:round;stroke-miterlimit:2;">
    <g transform="matrix(1,0,0,1,-104.375,-651.69)">
        <path d="M104.375,733.738L110.951,751.804L275.092,751.804L297.522,729.375L363.154,729.375L385.583,706.945L403.709,706.945L440.878,669.776L434.302,651.71L273.876,651.71C257.428,651.71 240.67,651.503 224.251,652.425C213.426,653.033 202.319,654.229 192.028,657.818C182.479,661.148 174.549,666.264 166.782,672.697C157.033,680.77 147.87,690.243 138.916,699.197L104.375,733.738Z" style="fill:rgb(207,0,0);"/>
    </g>
    <g transform="matrix(1,0,0,1,-104.375,-643.721)">
        <path d="M295.322,694.368L352.862,694.368L370.28,676.949L312.74,676.949L295.322,694.368ZM410.836,654.519L393.417,671.938L317.666,671.938L334.267,654.519L410.836,654.519ZM327.078,654.519L264.801,716.797L231.554,716.797L274.066,673.745L273.408,671.938L264.868,671.938L282.287,654.519L327.078,654.519ZM274.502,654.519L257.083,671.938L254.651,671.938C207.146,671.938 207.145,671.938 181.512,697.572L162.287,716.797L128.499,716.797L145.918,699.379C190.772,654.524 190.78,654.519 274.502,654.519ZM262.77,676.949L245.352,694.368L232.222,694.368C226.595,694.368 226.399,694.563 223.391,697.572L204.165,716.797L170.381,716.797L187.835,699.379C210.215,677.042 215.853,676.959 252.102,676.951L262.77,676.949ZM411.087,683.717L411.871,686.345L405.143,693.073L404.533,691.031C404.373,690.495 404.266,689.979 404.212,689.482C404.158,688.986 404.168,688.465 404.24,687.922C404.313,687.378 404.449,686.785 404.649,686.144C404.848,685.503 405.121,684.77 405.467,683.945L406.78,680.827C406.926,680.493 407.017,680.217 407.055,679.998C407.093,679.778 407.081,679.563 407.017,679.351C406.924,679.038 406.792,678.895 406.621,678.921C406.45,678.947 406.249,679.076 406.017,679.308L402.354,682.971L401.569,680.343L405.417,676.494C406.388,675.524 407.179,675.084 407.79,675.176C408.401,675.268 408.846,675.783 409.126,676.721C409.282,677.245 409.367,677.748 409.378,678.229C409.39,678.71 409.342,679.201 409.232,679.701C409.123,680.202 408.964,680.734 408.756,681.298C408.548,681.861 408.302,682.487 408.018,683.176L406.837,686.075C406.65,686.523 406.548,686.864 406.529,687.1C406.51,687.337 406.532,687.561 406.595,687.773L406.695,688.108L411.087,683.717ZM419.019,672.132C419.269,672.969 419.423,673.808 419.481,674.648C419.539,675.489 419.491,676.305 419.337,677.097C419.183,677.889 418.917,678.647 418.541,679.372C418.164,680.096 417.671,680.762 417.063,681.371L416.236,682.197C415.628,682.806 415.055,683.202 414.516,683.385C413.978,683.568 413.485,683.564 413.038,683.374C412.591,683.183 412.189,682.814 411.832,682.265C411.475,681.716 411.172,681.023 410.922,680.185L410.403,678.444C410.156,677.618 410.005,676.791 409.951,675.961C409.896,675.132 409.948,674.327 410.105,673.546C410.263,672.765 410.53,672.015 410.908,671.297C411.287,670.578 411.78,669.914 412.389,669.305L413.215,668.479C413.824,667.871 414.396,667.472 414.933,667.283C415.47,667.094 415.96,667.09 416.403,667.269C416.848,667.448 417.246,667.807 417.6,668.344C417.953,668.883 418.253,669.565 418.5,670.39L419.019,672.132ZM413.365,678.438C413.625,679.309 413.923,679.812 414.259,679.946C414.596,680.081 415.036,679.876 415.579,679.333L416.101,678.811C416.644,678.267 416.976,677.7 417.096,677.109C417.216,676.518 417.147,675.787 416.886,674.917L416.077,672.204C415.817,671.334 415.52,670.834 415.185,670.705C414.85,670.576 414.411,670.784 413.867,671.327L413.346,671.849C412.802,672.392 412.47,672.957 412.348,673.542C412.226,674.127 412.295,674.855 412.555,675.726L413.365,678.438ZM427.022,667.781L427.806,670.41L421.078,677.138L420.468,675.096C420.309,674.56 420.201,674.044 420.148,673.547C420.093,673.051 420.103,672.53 420.176,671.986C420.248,671.442 420.385,670.85 420.583,670.209C420.783,669.567 421.056,668.834 421.402,668.01L422.716,664.892C422.861,664.558 422.952,664.282 422.991,664.062C423.029,663.843 423.016,663.628 422.953,663.416C422.859,663.103 422.727,662.96 422.556,662.986C422.385,663.012 422.184,663.141 421.952,663.373L418.289,667.036L417.505,664.407L421.352,660.559C422.323,659.588 423.114,659.149 423.725,659.241C424.336,659.333 424.781,659.848 425.061,660.785C425.217,661.31 425.302,661.813 425.314,662.294C425.325,662.775 425.277,663.265 425.167,663.766C425.058,664.267 424.899,664.799 424.691,665.362C424.483,665.926 424.237,666.552 423.953,667.241L422.772,670.14C422.586,670.587 422.483,670.929 422.464,671.165C422.445,671.402 422.467,671.626 422.531,671.838L422.631,672.173L427.022,667.781ZM429.33,666.387C428.656,667.06 428.099,667.346 427.659,667.242C427.218,667.139 426.904,666.769 426.714,666.133C426.584,665.698 426.523,665.204 426.532,664.651C426.542,664.098 426.612,663.365 426.744,662.451L427.577,656.683C427.709,655.768 427.908,654.946 428.174,654.216C428.441,653.485 428.792,652.903 429.227,652.468L429.509,652.185C430.009,651.685 430.503,651.503 430.99,651.639C431.478,651.775 431.876,652.361 432.186,653.399L433.75,658.64L435,657.39L435.765,659.952L434.515,661.202L435.089,663.127L432.97,665.247L432.395,663.321L429.33,666.387ZM429.196,663.195L431.631,660.76L430.146,655.787C430.113,655.675 430.071,655.612 430.02,655.599C429.968,655.585 429.914,655.607 429.856,655.665C429.813,655.708 429.78,655.766 429.759,655.837C429.738,655.909 429.723,655.993 429.714,656.089L428.8,662.72C428.791,662.816 428.786,662.902 428.784,662.975C428.783,663.049 428.791,663.114 428.807,663.17C428.834,663.259 428.876,663.315 428.935,663.336C428.992,663.358 429.08,663.311 429.196,663.195ZM386.275,688.166L385.107,684.957L383.544,684.957L383.215,684.052L387.438,684.052L387.768,684.957L386.204,684.957L387.373,688.166L386.275,688.166ZM389.141,688.166L388.329,685.226C388.205,684.787 388.21,684.471 388.343,684.277C388.475,684.083 388.696,683.987 389.007,683.987C389.34,683.987 389.641,684.088 389.911,684.291C390.18,684.494 390.406,684.771 390.589,685.122L391.657,687.168C391.681,687.212 391.704,687.244 391.729,687.267C391.753,687.289 391.784,687.3 391.82,687.3C391.857,687.3 391.88,687.287 391.888,687.261C391.897,687.236 391.896,687.201 391.883,687.157L391.453,685.117C391.378,684.769 391.401,684.494 391.523,684.291C391.645,684.088 391.871,683.987 392.2,683.987C392.547,683.987 392.841,684.084 393.083,684.28C393.324,684.476 393.542,684.791 393.737,685.226L395.065,688.166L394.006,688.166L392.659,685.067C392.642,685.03 392.624,685 392.606,684.974C392.587,684.948 392.56,684.935 392.523,684.935C392.494,684.935 392.474,684.947 392.465,684.971C392.455,684.995 392.454,685.023 392.463,685.056L392.896,687.256C392.955,687.548 392.923,687.784 392.8,687.963C392.676,688.142 392.461,688.232 392.154,688.232C391.836,688.232 391.548,688.139 391.291,687.955C391.033,687.77 390.829,687.535 390.678,687.25L389.497,685.062C389.475,685.021 389.451,684.99 389.425,684.968C389.399,684.947 389.371,684.935 389.342,684.935C389.305,684.935 389.285,684.948 389.282,684.974C389.278,685 389.282,685.032 389.293,685.073L390.2,688.166L389.141,688.166ZM362.076,718.015L358.328,705.458L360.502,703.284L361.921,708.039L365.78,704.18L364.361,699.425L366.535,697.251L370.282,709.808L368.109,711.982L366.654,707.11L362.795,710.969L364.25,715.841L362.076,718.015ZM371.75,708.341L368.003,695.783L370.176,693.609L373.924,706.167L371.75,708.341ZM382.044,698.047L380.618,696.06L376.802,699.875L376.935,703.156L374.739,705.351L374.423,692.516C374.396,691.513 374.465,690.617 374.63,689.829C374.795,689.042 375.149,688.376 375.693,687.832C376.258,687.267 376.772,687.061 377.237,687.213C377.7,687.364 378.151,687.73 378.587,688.308L384.305,695.786L382.044,698.047ZM376.472,691.248L376.68,696.627L379.202,694.106L376.864,690.857C376.818,690.801 376.774,690.755 376.73,690.718C376.687,690.683 376.636,690.694 376.578,690.752C376.527,690.802 376.496,690.87 376.483,690.955C376.471,691.04 376.467,691.137 376.472,691.248ZM309.554,718.129L305.91,718.129L301.77,714.609C301.402,714.302 301.115,714.007 300.91,713.725C300.705,713.444 300.561,713.19 300.479,712.964C300.296,712.462 300.311,712.08 300.523,711.819C300.736,711.558 301.103,711.427 301.626,711.427L303.148,711.427C303.486,711.427 303.703,711.333 303.797,711.143C303.893,710.953 303.888,710.715 303.783,710.428L303.599,709.921C303.487,709.613 303.321,709.378 303.103,709.214C302.885,709.049 302.591,708.968 302.222,708.968L298.225,708.968L301.56,718.129L298.485,718.129L294.289,706.6L301.053,706.6C302.539,706.6 303.725,706.846 304.611,707.338C305.497,707.83 306.14,708.624 306.539,709.721L306.78,710.382C306.955,710.864 307.013,711.291 306.955,711.666C306.896,712.039 306.752,712.355 306.522,712.611C306.293,712.867 305.985,713.064 305.6,713.203C305.215,713.341 304.782,713.41 304.3,713.41L304.023,713.41L309.554,718.129ZM321.419,713.164C321.699,713.933 321.838,714.632 321.837,715.262C321.836,715.893 321.686,716.431 321.387,716.877C321.088,717.322 320.63,717.668 320.012,717.914C319.395,718.16 318.62,718.283 317.687,718.283L316.672,718.283C315.74,718.283 314.875,718.16 314.078,717.914C313.282,717.668 312.572,717.322 311.948,716.877C311.325,716.431 310.783,715.893 310.323,715.262C309.863,714.632 309.493,713.933 309.214,713.164L308.632,711.565C308.352,710.797 308.212,710.098 308.214,709.467C308.215,708.837 308.365,708.299 308.664,707.853C308.963,707.407 309.421,707.062 310.039,706.816C310.657,706.569 311.431,706.447 312.364,706.447L313.379,706.447C314.311,706.447 315.176,706.569 315.973,706.816C316.769,707.062 317.479,707.407 318.103,707.853C318.726,708.299 319.268,708.837 319.728,709.467C320.188,710.098 320.558,710.797 320.837,711.565L321.419,713.164ZM312.486,713.287C312.818,714.199 313.225,714.845 313.707,715.224C314.188,715.603 314.843,715.793 315.674,715.793L316.873,715.793C317.703,715.793 318.22,715.603 318.426,715.224C318.631,714.845 318.568,714.199 318.236,713.287L317.553,711.412C317.221,710.5 316.815,709.857 316.336,709.483C315.857,709.109 315.201,708.921 314.372,708.921L313.173,708.921C312.343,708.921 311.824,709.109 311.617,709.483C311.41,709.857 311.472,710.5 311.804,711.412L312.486,713.287ZM334.039,715.593L334.962,718.129L330.504,718.129C329.592,718.129 328.746,718.014 327.965,717.784C327.184,717.553 326.486,717.225 325.87,716.8C325.254,716.375 324.717,715.857 324.259,715.247C323.802,714.637 323.437,713.959 323.165,713.211L322.549,711.519C322.277,710.771 322.148,710.092 322.161,709.483C322.175,708.873 322.335,708.355 322.642,707.93C322.948,707.505 323.408,707.177 324.02,706.946C324.633,706.716 325.396,706.6 326.308,706.6L330.689,706.6L331.612,709.137L327.385,709.137C326.432,709.137 325.849,709.324 325.637,709.698C325.425,710.072 325.475,710.689 325.788,711.55L326.382,713.18C326.695,714.04 327.099,714.658 327.594,715.032C328.089,715.406 328.828,715.593 329.812,715.593L334.039,715.593ZM346.474,713.164C346.754,713.933 346.893,714.632 346.892,715.262C346.891,715.893 346.741,716.431 346.442,716.877C346.143,717.322 345.685,717.668 345.067,717.914C344.45,718.16 343.675,718.283 342.742,718.283L341.728,718.283C340.795,718.283 339.93,718.16 339.134,717.914C338.337,717.668 337.627,717.322 337.004,716.877C336.38,716.431 335.838,715.893 335.379,715.262C334.918,714.632 334.549,713.933 334.269,713.164L333.687,711.565C333.407,710.797 333.268,710.098 333.269,709.467C333.27,708.837 333.42,708.299 333.719,707.853C334.018,707.407 334.476,707.062 335.094,706.816C335.712,706.569 336.487,706.447 337.419,706.447L338.434,706.447C339.367,706.447 340.231,706.569 341.028,706.816C341.824,707.062 342.534,707.407 343.158,707.853C343.781,708.299 344.323,708.837 344.783,709.467C345.243,710.098 345.613,710.797 345.893,711.565L346.474,713.164ZM337.542,713.287C337.874,714.199 338.28,714.845 338.762,715.224C339.243,715.603 339.899,715.793 340.729,715.793L341.928,715.793C342.758,715.793 343.276,715.603 343.481,715.224C343.686,714.845 343.623,714.199 343.291,713.287L342.608,711.412C342.276,710.5 341.871,709.857 341.391,709.483C340.912,709.109 340.257,708.921 339.427,708.921L338.228,708.921C337.398,708.921 336.879,709.109 336.672,709.483C336.465,709.857 336.527,710.5 336.859,711.412L337.542,713.287ZM359.095,715.593L360.018,718.129L355.56,718.129C354.648,718.129 353.801,718.014 353.02,717.784C352.24,717.553 351.541,717.225 350.925,716.8C350.309,716.375 349.772,715.857 349.315,715.247C348.857,714.637 348.492,713.959 348.22,713.211L347.604,711.519C347.332,710.771 347.203,710.092 347.217,709.483C347.23,708.873 347.391,708.355 347.697,707.93C348.003,707.505 348.463,707.177 349.076,706.946C349.689,706.716 350.451,706.6 351.363,706.6L355.745,706.6L356.668,709.137L352.44,709.137C351.487,709.137 350.905,709.324 350.692,709.698C350.48,710.072 350.531,710.689 350.844,711.55L351.437,713.18C351.75,714.04 352.154,714.658 352.649,715.032C353.144,715.406 353.883,715.593 354.867,715.593L359.095,715.593ZM279.957,734.503L276.209,721.945L282.633,715.521L283.458,718.284L279.208,722.534L279.897,724.845L284.147,720.594L284.972,723.357L280.721,727.607L282.131,732.329L279.957,734.503ZM294.431,713.007C294.681,713.844 294.827,714.687 294.868,715.537C294.91,716.386 294.84,717.217 294.659,718.028C294.478,718.84 294.178,719.629 293.757,720.398C293.337,721.165 292.798,721.879 292.138,722.539L291.421,723.256C290.761,723.916 290.142,724.361 289.562,724.593C288.982,724.825 288.456,724.862 287.985,724.702C287.514,724.543 287.095,724.202 286.727,723.678C286.359,723.155 286.05,722.474 285.8,721.637L285.28,719.896C285.031,719.059 284.885,718.216 284.843,717.366C284.801,716.517 284.871,715.686 285.052,714.874C285.233,714.063 285.534,713.273 285.954,712.505C286.374,711.737 286.914,711.024 287.573,710.364L288.291,709.646C288.95,708.987 289.57,708.541 290.15,708.309C290.73,708.077 291.255,708.041 291.726,708.201C292.197,708.36 292.616,708.701 292.984,709.224C293.352,709.748 293.661,710.428 293.911,711.265L294.431,713.007ZM288.123,719.489C288.419,720.482 288.751,721.064 289.117,721.234C289.482,721.404 289.959,721.196 290.546,720.609L291.394,719.761C291.981,719.174 292.334,718.553 292.453,717.897C292.573,717.241 292.485,716.417 292.188,715.423L291.578,713.381C291.282,712.387 290.952,711.808 290.587,711.643C290.223,711.479 289.747,711.69 289.161,712.277L288.312,713.125C287.725,713.712 287.372,714.33 287.25,714.98C287.129,715.631 287.217,716.453 287.513,717.446L288.123,719.489ZM119.984,729.03L120.907,731.566L115.066,731.566C114.113,731.566 113.53,731.753 113.318,732.127C113.105,732.501 113.156,733.119 113.469,733.98L114.102,735.717C114.434,736.629 114.84,737.274 115.322,737.654C115.803,738.033 116.459,738.222 117.289,738.222L119.164,738.222C119.738,738.222 120.12,738.138 120.309,737.969C120.499,737.8 120.526,737.531 120.392,737.162L120.023,736.147L116.918,736.147L116.034,733.718L121.906,733.718L123.232,737.361C123.65,738.509 123.57,739.355 122.994,739.898C122.418,740.441 121.408,740.713 119.963,740.713L118.287,740.713C116.412,740.713 114.846,740.262 113.591,739.36C112.335,738.458 111.414,737.203 110.829,735.594L110.23,733.949C109.958,733.201 109.828,732.522 109.842,731.912C109.856,731.302 110.016,730.785 110.322,730.359C110.629,729.934 111.088,729.606 111.702,729.376C112.314,729.145 113.077,729.03 113.989,729.03L119.984,729.03ZM137.608,740.559L133.964,740.559L129.824,737.039C129.456,736.731 129.169,736.437 128.964,736.155C128.759,735.873 128.615,735.619 128.533,735.394C128.351,734.892 128.365,734.51 128.577,734.249C128.79,733.987 129.158,733.857 129.68,733.857L131.202,733.857C131.54,733.857 131.757,733.762 131.852,733.572C131.947,733.383 131.942,733.144 131.837,732.857L131.653,732.35C131.541,732.043 131.376,731.807 131.157,731.643C130.939,731.479 130.645,731.397 130.276,731.397L126.279,731.397L129.614,740.559L126.539,740.559L122.343,729.03L129.107,729.03C130.593,729.03 131.779,729.276 132.665,729.768C133.552,730.259 134.194,731.054 134.593,732.15L134.834,732.811C135.009,733.293 135.067,733.721 135.009,734.095C134.95,734.469 134.806,734.784 134.576,735.04C134.347,735.296 134.04,735.494 133.654,735.632C133.269,735.771 132.836,735.84 132.354,735.84L132.077,735.84L137.608,740.559ZM148.744,740.559L146.959,738.145L141.563,738.145L141.519,740.559L138.414,740.559L138.857,731.259C138.889,730.531 139.043,729.947 139.318,729.506C139.593,729.065 140.115,728.845 140.884,728.845C141.683,728.845 142.39,729.063 143.004,729.499C143.619,729.934 144.2,730.511 144.748,731.228L151.942,740.559L148.744,740.559ZM141.702,731.812L141.618,735.763L145.185,735.763L142.256,731.812C142.199,731.74 142.142,731.676 142.086,731.62C142.029,731.564 141.96,731.535 141.878,731.535C141.806,731.535 141.759,731.561 141.737,731.612C141.715,731.663 141.703,731.73 141.702,731.812ZM153.393,740.559L150.316,732.104C150.126,731.582 150.043,731.115 150.068,730.705C150.093,730.295 150.197,729.955 150.38,729.683C150.563,729.411 150.821,729.204 151.153,729.06C151.485,728.917 151.856,728.845 152.266,728.845C153.25,728.845 154.117,729.109 154.868,729.637C155.618,730.165 156.325,730.859 156.986,731.72L161.719,737.838C161.775,737.91 161.834,737.979 161.894,738.046C161.954,738.112 162.026,738.145 162.107,738.145C162.21,738.145 162.269,738.117 162.284,738.061C162.299,738.005 162.289,737.925 162.251,737.823L159.051,729.03L162.125,729.03L165.208,737.5C165.406,738.043 165.492,738.52 165.467,738.93C165.442,739.339 165.338,739.68 165.155,739.952C164.972,740.223 164.713,740.426 164.377,740.559C164.041,740.692 163.669,740.759 163.259,740.759C162.275,740.759 161.415,740.502 160.681,739.99C159.946,739.478 159.232,738.776 158.538,737.884L153.806,731.766C153.749,731.694 153.69,731.625 153.63,731.559C153.57,731.492 153.499,731.459 153.417,731.459C153.315,731.459 153.256,731.487 153.24,731.543C153.225,731.599 153.236,731.679 153.273,731.781L156.468,740.559L153.393,740.559ZM179.798,732.289L180.212,733.426C180.667,734.676 180.601,735.537 180.014,736.009C179.427,736.48 178.34,736.716 176.751,736.716L174.061,736.716L175.46,740.559L172.385,740.559L168.189,729.03L173.954,729.03C175.542,729.03 176.807,729.281 177.748,729.783C178.689,730.285 179.372,731.12 179.798,732.289ZM177.104,733.334L176.774,732.427C176.643,732.068 176.431,731.789 176.138,731.589C175.845,731.389 175.422,731.29 174.868,731.29L172.086,731.29L173.238,734.456L176.021,734.456C176.574,734.456 176.925,734.356 177.072,734.156C177.22,733.956 177.23,733.683 177.104,733.334ZM195.789,740.559L192.146,740.559L188.005,737.039C187.637,736.731 187.351,736.437 187.145,736.155C186.94,735.873 186.797,735.619 186.715,735.394C186.532,734.892 186.547,734.51 186.759,734.249C186.972,733.987 187.339,733.857 187.862,733.857L189.384,733.857C189.722,733.857 189.938,733.762 190.033,733.572C190.128,733.383 190.123,733.144 190.019,732.857L189.834,732.35C189.723,732.043 189.557,731.807 189.339,731.643C189.12,731.479 188.827,731.397 188.457,731.397L184.461,731.397L187.795,740.559L184.721,740.559L180.524,729.03L187.288,729.03C188.774,729.03 189.961,729.276 190.847,729.768C191.733,730.259 192.375,731.054 192.775,732.15L193.015,732.811C193.19,733.293 193.249,733.721 193.19,734.095C193.132,734.469 192.988,734.784 192.758,735.04C192.529,735.296 192.221,735.494 191.836,735.632C191.451,735.771 191.017,735.84 190.536,735.84L190.259,735.84L195.789,740.559ZM197.518,740.559L193.321,729.03L202.944,729.03L203.868,731.566L197.242,731.566L197.97,733.564L204.595,733.564L205.49,736.024L198.865,736.024L199.592,738.022L206.218,738.022L207.141,740.559L197.518,740.559ZM209.008,740.559L206.732,732.319C206.386,731.09 206.399,730.203 206.77,729.66C207.141,729.117 207.762,728.845 208.634,728.845C209.566,728.845 210.41,729.13 211.165,729.699C211.921,730.267 212.555,731.043 213.066,732.027L216.06,737.761C216.125,737.884 216.192,737.977 216.261,738.038C216.329,738.099 216.415,738.13 216.517,738.13C216.62,738.13 216.684,738.094 216.709,738.022C216.734,737.951 216.729,737.853 216.694,737.73L215.489,732.012C215.278,731.038 215.344,730.267 215.685,729.699C216.026,729.13 216.658,728.845 217.58,728.845C218.554,728.845 219.379,729.119 220.055,729.668C220.731,730.216 221.342,731.1 221.889,732.319L225.61,740.559L222.643,740.559L218.867,731.874C218.819,731.771 218.77,731.684 218.718,731.612C218.666,731.54 218.589,731.505 218.487,731.505C218.405,731.505 218.35,731.538 218.323,731.604C218.296,731.671 218.294,731.751 218.318,731.843L219.531,738.007C219.697,738.827 219.607,739.488 219.262,739.99C218.917,740.492 218.314,740.743 217.453,740.743C216.561,740.743 215.755,740.485 215.034,739.967C214.313,739.45 213.74,738.791 213.316,737.992L210.007,731.858C209.945,731.745 209.878,731.658 209.804,731.597C209.731,731.535 209.653,731.505 209.571,731.505C209.468,731.505 209.412,731.54 209.402,731.612C209.393,731.684 209.403,731.776 209.434,731.889L211.975,740.559L209.008,740.559ZM227.677,740.559L223.481,729.03L226.555,729.03L230.751,740.559L227.677,740.559ZM243.217,735.594C243.496,736.362 243.635,737.062 243.634,737.692C243.633,738.322 243.483,738.86 243.184,739.306C242.885,739.752 242.427,740.098 241.809,740.344C241.192,740.59 240.417,740.713 239.484,740.713L238.469,740.713C237.537,740.713 236.672,740.59 235.876,740.344C235.079,740.098 234.369,739.752 233.745,739.306C233.122,738.86 232.58,738.322 232.121,737.692C231.661,737.062 231.291,736.362 231.011,735.594L230.429,733.995C230.149,733.227 230.01,732.527 230.011,731.897C230.012,731.266 230.163,730.728 230.461,730.283C230.76,729.837 231.218,729.491 231.836,729.245C232.454,728.999 233.229,728.876 234.161,728.876L235.176,728.876C236.108,728.876 236.973,728.999 237.77,729.245C238.566,729.491 239.276,729.837 239.9,730.283C240.523,730.728 241.065,731.266 241.525,731.897C241.985,732.527 242.355,733.227 242.635,733.995L243.217,735.594ZM234.284,735.717C234.616,736.629 235.023,737.274 235.504,737.654C235.985,738.033 236.641,738.222 237.471,738.222L238.67,738.222C239.5,738.222 240.018,738.033 240.223,737.654C240.428,737.274 240.365,736.629 240.033,735.717L239.35,733.841C239.018,732.929 238.613,732.286 238.133,731.912C237.654,731.538 236.999,731.351 236.169,731.351L234.97,731.351C234.14,731.351 233.621,731.538 233.414,731.912C233.207,732.286 233.269,732.929 233.601,733.841L234.284,735.717ZM252.487,729.03C253.399,729.03 254.243,729.145 255.018,729.376C255.794,729.606 256.485,729.934 257.09,730.359C257.696,730.785 258.223,731.302 258.67,731.912C259.118,732.522 259.477,733.201 259.75,733.949L260.365,735.64C260.637,736.388 260.772,737.067 260.768,737.677C260.765,738.286 260.615,738.804 260.319,739.229C260.023,739.655 259.571,739.983 258.963,740.213C258.355,740.444 257.595,740.559 256.683,740.559L250.703,740.559L246.507,729.03L252.487,729.03ZM253.171,731.459L250.465,731.459L252.894,738.13L255.522,738.13C256.537,738.13 257.142,737.941 257.337,737.561C257.532,737.182 257.461,736.531 257.126,735.609L256.527,733.964C256.191,733.042 255.792,732.394 255.327,732.02C254.863,731.646 254.144,731.459 253.171,731.459ZM264.145,740.559L259.949,729.03L269.572,729.03L270.495,731.566L263.87,731.566L264.597,733.564L271.223,733.564L272.118,736.024L265.493,736.024L266.22,738.022L272.845,738.022L273.769,740.559L264.145,740.559ZM279.826,743.835C284.534,740.875 294.068,735.466 301.756,731.662C309.445,727.858 314.826,725.369 326.512,724.812C338.198,724.255 345.049,724.63 352.456,725.377C359.863,726.124 371.432,724.429 376.394,716.923C381.356,709.417 391.782,704.318 399.357,703.269C406.933,702.22 412.66,705.995 423.597,697.798C426.692,695.479 427.998,694.758 430.024,692.616C434.927,687.43 438.751,680.415 444.234,668.461C452.175,674.562 456.621,677.948 466.095,687.819C475.568,697.692 479.187,705.911 481.99,712.091C484.793,718.272 488.969,730.349 490.322,740.888C490.486,742.167 490.463,742.901 490.497,743.835L279.826,743.835Z" style="fill:white;"/>
    </g>
    <g transform="matrix(1,0,0,1,-104.375,-651.69)">
        <path d="M268.517,733.738L104.375,733.738L138.916,699.197C147.87,690.243 157.033,680.77 166.781,672.697C174.549,666.264 182.479,661.148 192.028,657.818C202.319,654.229 213.426,653.033 224.251,652.425C240.67,651.503 257.428,651.71 273.876,651.71L434.302,651.71L397.133,688.879L379.007,688.879L356.578,711.309L290.947,711.309L268.517,733.738ZM292.857,702.337L352.862,702.337L372.087,683.111L312.083,683.111L292.857,702.337ZM315.287,679.907L393.417,679.907L412.642,660.682L333.609,660.682L315.287,679.907ZM281.63,660.682L262.405,679.907L273.408,679.907L229.112,724.766L264.801,724.766L328.885,660.682L281.63,660.682ZM126.035,724.766L162.287,724.766L181.512,705.541C207.145,679.907 207.146,679.907 254.651,679.907L257.083,679.907L276.309,660.682L273.876,660.682C190.122,660.682 190.12,660.681 145.26,705.541L126.035,724.766ZM167.914,724.766L204.165,724.766L223.391,705.541C226.399,702.532 226.595,702.337 232.222,702.337L245.352,702.337L264.577,683.111L251.444,683.114C215.196,683.121 209.558,683.205 187.177,705.541L167.914,724.766ZM301.756,739.631C306.765,742.832 310.624,746.817 313.81,751.268C313.481,751.445 313.152,751.624 312.823,751.804L279.826,751.804C284.534,748.844 294.068,743.435 301.756,739.631ZM326.512,732.781C338.198,732.224 345.049,732.599 352.456,733.346C358.319,736.239 363.087,739.914 367.211,744.062C357.885,742.718 348.668,742.121 339.592,742.471C336.054,738.663 331.845,735.334 326.512,732.781ZM376.9,724.161C382.038,717.056 392.03,712.252 399.357,711.238C406.139,714.132 411.921,717.767 417.033,721.972C408.293,723.199 399.839,725.96 392.431,734.635C387.883,730.79 382.649,727.461 376.394,724.892C376.562,724.644 376.731,724.401 376.9,724.161ZM423.597,705.767C426.692,703.448 427.998,702.727 430.024,700.585C433.431,696.981 436.318,692.492 439.603,686.077C441.187,683.159 442.732,679.952 444.234,676.43C452.175,682.531 456.621,685.917 466.095,695.789C459.02,707.647 451.297,714.96 443.101,718.98C437.397,713.944 430.943,709.486 423.597,705.767ZM482.881,722.116C485.395,728.158 488.559,737.722 489.993,746.595C490.111,747.345 490.221,748.099 490.322,748.857C488.832,749.929 487.329,750.91 485.813,751.804L462.458,751.804C461.157,746.54 459.238,741.571 456.857,736.833C465.686,734.427 474.095,729.102 481.99,720.06C482.293,720.742 482.59,721.427 482.881,722.116ZM313.81,751.268C322.253,747.446 330.821,744.426 339.592,742.471C341.831,745.441 343.837,748.563 345.651,751.804L314.123,751.804C314.02,751.625 313.915,751.446 313.81,751.268ZM367.211,744.062C376.316,744.647 384.656,741.304 392.431,734.635C396.458,738.916 399.994,743.549 403.076,748.48C401.454,749.67 399.818,750.783 398.166,751.804L372.763,751.804C371.042,749.131 369.194,746.55 367.211,744.062ZM417.033,721.972C425.789,721.265 434.539,720.724 443.101,718.98C448.268,724.487 452.844,730.466 456.857,736.833C447.647,736.999 438.289,736.382 429.099,737.081C425.582,731.678 421.574,726.627 417.033,721.972ZM403.076,748.48C411.118,741.149 419.994,738.444 429.099,737.081C431.479,741.69 433.317,746.582 434.422,751.804L404.592,751.804C404.119,750.679 403.613,749.571 403.076,748.48" style="fill:rgb(255,0,0);"/>
    </g>
</svg>
